<svg xmlns="http://www.w3.org/2000/svg" xmlns:xlink="http://www.w3.org/1999/xlink" width="176" height="70" viewBox="0 0 176 70">
  <defs>
    <style>
      .a {
        fill: #0033a1;
      }

      .b {
        fill: url(#a);
      }
    </style>
    <linearGradient id="a" x1="87.93" y1="13.83" x2="87.93" y2="52.77" gradientUnits="userSpaceOnUse">
      <stop offset="0.17" stop-color="#ffd200"/>
      <stop offset="1" stop-color="#f3901d"/>
    </linearGradient>
  </defs>
  <title>logo</title>
  <g>
    <path class="a" d="M63.27,61.66l-3.24,8h.91l.84-2.12h4l.83,2.12h.93l-3.15-7.94Zm-1.19,5.09,1.74-4.32,1.71,4.32ZM38.75,64.23a1.66,1.66,0,0,0-.31.14l-.36.25-.45.39v-.7h-.79v5.3h.79v-3a2.18,2.18,0,0,1,.08-.63,1.66,1.66,0,0,1,.27-.53,1.36,1.36,0,0,1,.45-.37,1.61,1.61,0,0,1,1.22,0,2.92,2.92,0,0,1,.48.29l.16-.88a2.59,2.59,0,0,0-1.22-.29A1.07,1.07,0,0,0,38.75,64.23Zm14.85.11A2.1,2.1,0,0,0,53,64a2.37,2.37,0,0,0-.69-.11,2.57,2.57,0,0,0-.75.1c-.23.07-.43.15-.6.22a3.85,3.85,0,0,0-.56.33l.29.62a3.88,3.88,0,0,1,.49-.29c.15-.06.31-.13.5-.19a1.77,1.77,0,0,1,.56-.09,1.09,1.09,0,0,1,.39.08,1.5,1.5,0,0,1,.33.23,1.59,1.59,0,0,1,.25.33.9.9,0,0,1,.1.38v.61a11.66,11.66,0,0,0-1.25.2,4,4,0,0,0-1.07.39,2.18,2.18,0,0,0-.73.6,1.37,1.37,0,0,0-.27.85,1.25,1.25,0,0,0,.13.57,1.48,1.48,0,0,0,.35.48,1.93,1.93,0,0,0,.52.33,1.8,1.8,0,0,0,.66.12,2.21,2.21,0,0,0,.83-.2c.32-.13.63-.28.93-.43v.46h.79v-4a1.65,1.65,0,0,0-.16-.75A1.74,1.74,0,0,0,53.6,64.34Zm-.2,4-.25.17-.47.25a3.82,3.82,0,0,1-.55.24,1.52,1.52,0,0,1-.49.11.76.76,0,0,1-.57-.26.88.88,0,0,1-.24-.62.68.68,0,0,1,.31-.55,3.06,3.06,0,0,1,.72-.39,5.93,5.93,0,0,1,.85-.24c.29-.06.52-.11.69-.13Zm-5.22-6.77a.62.62,0,0,0-.51.2.75.75,0,0,0,0,1,.67.67,0,0,0,1,0,.66.66,0,0,0,.21-.5.67.67,0,0,0-.19-.49A.6.6,0,0,0,48.18,61.62Zm-.47,8h.79v-5.3h-.79Zm-3.8-5.55a2.86,2.86,0,0,0-.83.15,2.7,2.7,0,0,0-.94.65v-.55h-.79v5.3h.79V66.19a1.13,1.13,0,0,1,.17-.62,1.42,1.42,0,0,1,.4-.41,1.62,1.62,0,0,1,.52-.23,2.07,2.07,0,0,1,.52-.07,2,2,0,0,1,.53.07,1.93,1.93,0,0,1,.5.24,1.31,1.31,0,0,1,.35.42,1.27,1.27,0,0,1,.14.6v3.42h.79V65.93a1.68,1.68,0,0,0-.6-1.38A2.38,2.38,0,0,0,43.91,64.06Zm-26.56.28a1.87,1.87,0,0,0-.61-.32,2.25,2.25,0,0,0-.68-.11,2.57,2.57,0,0,0-.75.1c-.23.07-.43.15-.6.22a3.39,3.39,0,0,0-.56.33l.28.62a4.78,4.78,0,0,1,.5-.29c.14-.06.31-.13.5-.19a1.77,1.77,0,0,1,.56-.09,1,1,0,0,1,.38.08,1.36,1.36,0,0,1,.34.23,1.59,1.59,0,0,1,.25.33.88.88,0,0,1,.09.38v.61a12.53,12.53,0,0,0-1.25.2,4,4,0,0,0-1.06.39,2.09,2.09,0,0,0-.73.6,1.38,1.38,0,0,0-.28.85,1.4,1.4,0,0,0,.13.57,1.85,1.85,0,0,0,.35.48,2.16,2.16,0,0,0,.53.33,1.75,1.75,0,0,0,.65.12,2.26,2.26,0,0,0,.84-.2c.32-.13.63-.28.93-.43v.46H18v-4a1.65,1.65,0,0,0-.16-.75A1.77,1.77,0,0,0,17.35,64.34Zm-.19,4-.25.17-.47.25a3.82,3.82,0,0,1-.55.24,1.51,1.51,0,0,1-.5.11.76.76,0,0,1-.56-.26.88.88,0,0,1-.24-.62.69.69,0,0,1,.3-.55,3.51,3.51,0,0,1,.72-.39,6.32,6.32,0,0,1,.85-.24c.29-.06.53-.11.7-.13Zm-6.23.5a4,4,0,0,1-1.46.26,3.28,3.28,0,0,1-1.31-.28,3.58,3.58,0,0,1-1.08-.76A3.49,3.49,0,0,1,6.34,67a3.34,3.34,0,0,1-.27-1.34,3.23,3.23,0,0,1,.28-1.35,3.55,3.55,0,0,1,.76-1.1,3.8,3.8,0,0,1,1.1-.74,3.23,3.23,0,0,1,1.31-.27,4.72,4.72,0,0,1,1.42.22,3.63,3.63,0,0,1,1.3.69l.38-.88a2.65,2.65,0,0,0-.66-.38,6.27,6.27,0,0,0-.8-.28,8.15,8.15,0,0,0-.86-.16c-.3,0-.57-.05-.83-.05a4.26,4.26,0,0,0-1.72.34,4.42,4.42,0,0,0-1.38.93A4.18,4.18,0,0,0,5.45,64a4,4,0,0,0-.34,1.66,4.18,4.18,0,0,0,.34,1.69,4.29,4.29,0,0,0,.92,1.37,4.42,4.42,0,0,0,1.38.93A4.26,4.26,0,0,0,9.47,70a4,4,0,0,0,.79-.09c.29-.06.59-.14.89-.23s.58-.2.85-.32.49-.23.66-.33l-.42-.84A7.24,7.24,0,0,1,10.93,68.89ZM34.9,65a2.7,2.7,0,0,0-.9-.61,2.84,2.84,0,0,0-1.12-.23,2.8,2.8,0,0,0-1.12.23,2.7,2.7,0,0,0-.9.61,2.59,2.59,0,0,0-.6.89A2.64,2.64,0,0,0,30,66.94,2.81,2.81,0,0,0,30.25,68a2.63,2.63,0,0,0,.6.9,2.84,2.84,0,0,0,.9.6,2.78,2.78,0,0,0,1.13.22,2.79,2.79,0,0,0,2.63-3.88A2.77,2.77,0,0,0,34.9,65Zm-.23,2.73a2,2,0,0,1-.43.62,1.85,1.85,0,0,1-.61.42,1.73,1.73,0,0,1-.74.16,1.63,1.63,0,0,1-.73-.16,1.85,1.85,0,0,1-.61-.42A1.87,1.87,0,0,1,31,66.93a2,2,0,0,1,.15-.77,2.13,2.13,0,0,1,.43-.63,2,2,0,0,1,.61-.43,1.88,1.88,0,0,1,1.47,0,2,2,0,0,1,.61.43,2.13,2.13,0,0,1,.43.63,2,2,0,0,1,.15.77A2,2,0,0,1,34.67,67.7ZM22,69l-.26.11a.67.67,0,0,1-.28.07A1.42,1.42,0,0,1,21,69.1a1.65,1.65,0,0,1-.41-.18,1,1,0,0,1-.32-.33.82.82,0,0,1-.13-.48V61.66h-.79v6.88a.91.91,0,0,0,.15.5,1.74,1.74,0,0,0,.41.4,2.35,2.35,0,0,0,.55.27,2.3,2.3,0,0,0,.63.1,1.68,1.68,0,0,0,.55-.11,3.13,3.13,0,0,0,.52-.24l-.13-.55ZM28,61.54a1.28,1.28,0,0,0-.65.15,1.18,1.18,0,0,0-.43.4,1.77,1.77,0,0,0-.24.58,3,3,0,0,0-.07.68v1H25.52V65h1.09v4.65h.79V65h1.91v-.64H27.4v-1a1.9,1.9,0,0,1,0-.41,1.14,1.14,0,0,1,.15-.36.77.77,0,0,1,.28-.26.84.84,0,0,1,.44-.11,1.14,1.14,0,0,1,.52.13,2.41,2.41,0,0,1,.48.3l.35-.62a3.94,3.94,0,0,0-.65-.33A2.72,2.72,0,0,0,28,61.54ZM24,61.62a.62.62,0,0,0-.51.2.69.69,0,0,0-.2.51.72.72,0,0,0,.18.49.67.67,0,0,0,1,0,.66.66,0,0,0,.21-.5.67.67,0,0,0-.19-.49A.6.6,0,0,0,24,61.62Zm-.47,8h.79v-5.3h-.79Zm131-.82L153,64.65h-.54L151,68.81l-1.53-4.5h-.88l1.79,5.3h1.1L152.72,66,154,69.61h1.1l1.79-5.3H156Zm-19.72-.47-5.46-6.66h-.74v8h.84V63.17l5.28,6.44h.92V61.66h-.84Zm7.58-2.55a3.07,3.07,0,0,0-.52-.9,2.51,2.51,0,0,0-.8-.6,2.54,2.54,0,0,0-1.1-.23,3.24,3.24,0,0,0-1.16.2,2.35,2.35,0,0,0-.89.57,2.48,2.48,0,0,0-.57.88,3,3,0,0,0-.2,1.14,3.51,3.51,0,0,0,.19,1.2,2.72,2.72,0,0,0,.56.93,2.69,2.69,0,0,0,.92.61,3.37,3.37,0,0,0,1.23.21,3.83,3.83,0,0,0,1.25-.22,4.7,4.7,0,0,0,1.1-.54l-.2-.83a5.85,5.85,0,0,1-1,.59,2.68,2.68,0,0,1-1.13.22,1.91,1.91,0,0,1-1.41-.55,2.57,2.57,0,0,1-.64-1.6h4.54A3.83,3.83,0,0,0,142.35,65.77Zm-4.28.45a2,2,0,0,1,1.82-1.46,1.56,1.56,0,0,1,1.05.37,2.81,2.81,0,0,1,.7,1.09ZM122.5,69l-.26.11a.71.71,0,0,1-.28.07,1.48,1.48,0,0,1-.39-.06,1.44,1.44,0,0,1-.4-.18,1,1,0,0,1-.33-.33.9.9,0,0,1-.13-.48V61.66h-.79v6.88a.85.85,0,0,0,.16.5,1.52,1.52,0,0,0,.4.4,2.24,2.24,0,0,0,.56.27,2.17,2.17,0,0,0,.62.1,1.68,1.68,0,0,0,.55-.11,3.13,3.13,0,0,0,.52-.24l-.12-.55Zm22.85-6.08-.79.26v1.16h-1.3V65h1.3v3.11a1.71,1.71,0,0,0,.4,1.18,1.5,1.5,0,0,0,1.19.46,2.08,2.08,0,0,0,.73-.14,4.2,4.2,0,0,0,.7-.3l-.25-.59-.44.2a1.25,1.25,0,0,1-.42.06,1.1,1.1,0,0,1-.8-.3,1,1,0,0,1-.32-.83V65h2.33v-.68h-2.33Zm17,2.07a2.9,2.9,0,0,0-2-.84,2.8,2.8,0,0,0-1.12.23,2.92,2.92,0,0,0-.9.61,2.74,2.74,0,0,0-.6.89,2.64,2.64,0,0,0-.22,1.08,2.81,2.81,0,0,0,.21,1.08,2.63,2.63,0,0,0,.6.9,2.84,2.84,0,0,0,.9.6,2.78,2.78,0,0,0,1.13.22,2.83,2.83,0,0,0,1.12-.22,3,3,0,0,0,.91-.6,3,3,0,0,0,.6-.9,2.76,2.76,0,0,0,0-2.16A2.91,2.91,0,0,0,162.37,65Zm-.24,2.73a2.12,2.12,0,0,1-.42.62,2,2,0,0,1-.62.42,1.7,1.7,0,0,1-.74.16,1.66,1.66,0,0,1-.73-.16,1.85,1.85,0,0,1-.61-.42,2,2,0,0,1-.58-1.39,1.87,1.87,0,0,1,.16-.77,1.93,1.93,0,0,1,.42-.63,2,2,0,0,1,.61-.43,1.87,1.87,0,0,1,.73-.15,1.85,1.85,0,0,1,.74.15,2.22,2.22,0,0,1,.62.43,2.31,2.31,0,0,1,.42.63,2,2,0,0,1,.15.77A2,2,0,0,1,162.13,67.7Zm8.42-1.15,2.27-2.24H172l-2.1,1.92-.35,0V61.66h-.79v8h.79V66.89H170l2.32,2.72h.88Zm-100-5a1.28,1.28,0,0,0-.65.15,1.18,1.18,0,0,0-.43.4,1.77,1.77,0,0,0-.24.58,3,3,0,0,0-.07.68v1H68.1V65h1.09v4.65H70V65h1.9v-.64H70v-1a1.9,1.9,0,0,1,0-.41,1.14,1.14,0,0,1,.15-.36.77.77,0,0,1,.28-.26.84.84,0,0,1,.44-.11,1.14,1.14,0,0,1,.52.13,2.09,2.09,0,0,1,.47.3l.36-.62a3.94,3.94,0,0,0-.65-.33A2.72,2.72,0,0,0,70.58,61.54ZM118,65a2.75,2.75,0,0,0-.91-.61,2.8,2.8,0,0,0-1.12-.23,2.72,2.72,0,0,0-1.11.23,2.85,2.85,0,0,0-.91.61,2.91,2.91,0,0,0-.6.89,2.64,2.64,0,0,0-.22,1.08,2.81,2.81,0,0,0,.21,1.08,3,3,0,0,0,.6.9,3.08,3.08,0,0,0,.9.6,3,3,0,0,0,2.25,0,2.88,2.88,0,0,0,.91-.6,2.79,2.79,0,0,0,.6-3.06A2.59,2.59,0,0,0,118,65Zm-.24,2.73a1.79,1.79,0,0,1-.42.62,1.89,1.89,0,0,1-.62.42,1.7,1.7,0,0,1-.74.16,1.66,1.66,0,0,1-.73-.16,2,2,0,0,1-.61-.42,1.79,1.79,0,0,1-.42-.62,2,2,0,0,1-.16-.77,2,2,0,0,1,.16-.77,1.93,1.93,0,0,1,.42-.63,2.09,2.09,0,0,1,.62-.43A1.79,1.79,0,0,1,116,65a1.85,1.85,0,0,1,.74.15,2.09,2.09,0,0,1,.62.43,1.93,1.93,0,0,1,.42.63,2,2,0,0,1,.16.77A2,2,0,0,1,117.75,67.7Zm48.46-3.47a1.66,1.66,0,0,0-.31.14l-.36.25-.45.39v-.7h-.79v5.3h.79v-3a2.59,2.59,0,0,1,.08-.63,1.66,1.66,0,0,1,.27-.53,1.36,1.36,0,0,1,.45-.37,1.5,1.5,0,0,1,.66-.13,1.47,1.47,0,0,1,.56.11,2.92,2.92,0,0,1,.48.29l.16-.88a2.56,2.56,0,0,0-1.22-.29A1.13,1.13,0,0,0,166.21,64.23ZM83.32,65.77a2.84,2.84,0,0,0-.51-.9,2.55,2.55,0,0,0-.81-.6A2.5,2.5,0,0,0,80.91,64a3.26,3.26,0,0,0-1.17.2,2.43,2.43,0,0,0-.89.57,2.48,2.48,0,0,0-.57.88,3.17,3.17,0,0,0-.2,1.14,3.51,3.51,0,0,0,.19,1.2,2.59,2.59,0,0,0,.57.93,2.56,2.56,0,0,0,.91.61,3.41,3.41,0,0,0,1.23.21,3.79,3.79,0,0,0,1.25-.22,4.51,4.51,0,0,0,1.1-.54l-.19-.83a5.93,5.93,0,0,1-1,.59A2.67,2.67,0,0,1,81,69a1.91,1.91,0,0,1-1.41-.55,2.52,2.52,0,0,1-.64-1.6h4.54A3.83,3.83,0,0,0,83.32,65.77ZM79,66.22a2,2,0,0,1,1.83-1.46,1.56,1.56,0,0,1,1,.37,2.81,2.81,0,0,1,.7,1.09Zm7.55-2a1.41,1.41,0,0,0-.31.14l-.36.25-.45.39v-.7h-.8v5.3h.8v-3a2.18,2.18,0,0,1,.08-.63,1.66,1.66,0,0,1,.27-.53,1.36,1.36,0,0,1,.45-.37,1.61,1.61,0,0,1,1.22,0,2.92,2.92,0,0,1,.48.29l.15-.88a2.52,2.52,0,0,0-1.21-.29A1.07,1.07,0,0,0,86.59,64.23Zm24.82.74a2.9,2.9,0,0,0-2-.84,2.86,2.86,0,0,0-2,.84,2.74,2.74,0,0,0-.6.89,2.64,2.64,0,0,0-.22,1.08,2.81,2.81,0,0,0,.21,1.08,2.63,2.63,0,0,0,.6.9,2.84,2.84,0,0,0,.9.6,2.78,2.78,0,0,0,1.13.22,2.83,2.83,0,0,0,1.12-.22,3,3,0,0,0,.91-.6,3,3,0,0,0,.6-.9,2.76,2.76,0,0,0,0-2.16A2.91,2.91,0,0,0,111.41,65Zm-.24,2.73a2.12,2.12,0,0,1-.42.62,2,2,0,0,1-.62.42,1.7,1.7,0,0,1-.74.16,1.66,1.66,0,0,1-.73-.16,2,2,0,0,1-.61-.42,2,2,0,0,1-.58-1.39,1.87,1.87,0,0,1,.16-.77,1.93,1.93,0,0,1,.42-.63,2.17,2.17,0,0,1,.61-.43,1.87,1.87,0,0,1,.73-.15,1.85,1.85,0,0,1,.74.15,2.22,2.22,0,0,1,.62.43,2.31,2.31,0,0,1,.42.63,2,2,0,0,1,.15.77A2,2,0,0,1,111.17,67.7ZM75,62.9l-.79.26v1.16h-1.3V65h1.3v3.11a1.71,1.71,0,0,0,.4,1.18,1.5,1.5,0,0,0,1.2.46,2.07,2.07,0,0,0,.72-.14,4.2,4.2,0,0,0,.7-.3L77,68.72l-.45.2a1.25,1.25,0,0,1-.42.06,1.12,1.12,0,0,1-.8-.3,1.07,1.07,0,0,1-.32-.83V65h2.34v-.68H75Zm18.2,2.92a2.8,2.8,0,0,0-.62-.49l-.8-.44-.22-.11a1.74,1.74,0,0,1-.25-.11,1.69,1.69,0,0,1-.27-.13,2,2,0,0,1-.25-.14,2,2,0,0,1-.45-.41,1,1,0,0,1-.18-.62.94.94,0,0,1,.09-.44,1.21,1.21,0,0,1,.24-.35,1,1,0,0,1,.33-.23.93.93,0,0,1,.4-.09,1.29,1.29,0,0,1,.78.24,1.7,1.7,0,0,1,.55.63l.72-.44a2,2,0,0,0-.81-.85,2.38,2.38,0,0,0-1.2-.3,2.22,2.22,0,0,0-.79.14,1.94,1.94,0,0,0-.63.4,2.08,2.08,0,0,0-.4.61,2.12,2.12,0,0,0-.14.75,1.58,1.58,0,0,0,.14.71,2,2,0,0,0,.36.54,3.2,3.2,0,0,0,.54.41c.21.12.42.24.65.35l.34.17.32.17.46.28a2.6,2.6,0,0,1,.4.33,1.52,1.52,0,0,1,.28.43,1.38,1.38,0,0,1,.1.55,1.62,1.62,0,0,1-.12.61,1.65,1.65,0,0,1-.31.53,1.67,1.67,0,0,1-.46.37,1.23,1.23,0,0,1-.57.14,1.48,1.48,0,0,1-.57-.11,1.92,1.92,0,0,1-.48-.29,2.21,2.21,0,0,1-.41-.4,4.45,4.45,0,0,1-.32-.48l-.77.36a2.54,2.54,0,0,0,1,1.21,2.76,2.76,0,0,0,1.57.45,2.23,2.23,0,0,0,.94-.2,2.09,2.09,0,0,0,.74-.53,2.22,2.22,0,0,0,.48-.78,2.7,2.7,0,0,0,.17-.94,2.24,2.24,0,0,0-.15-.86A2.06,2.06,0,0,0,93.22,65.82Zm11.46-1.14a2.28,2.28,0,0,0-.72-.39,2.44,2.44,0,0,0-.84-.15,2,2,0,0,0-.83.18,4.18,4.18,0,0,0-1,.7V61.64h-.79v8h.79V66.33a.91.91,0,0,1,.19-.57,1.64,1.64,0,0,1,.44-.43,1.92,1.92,0,0,1,.54-.26A1.59,1.59,0,0,1,103,65a1.57,1.57,0,0,1,.67.14,1.68,1.68,0,0,1,.51.4,1.81,1.81,0,0,1,.32.58,2.2,2.2,0,0,1,.11.68v2.82h.79V66a1.57,1.57,0,0,0-.19-.74A2.13,2.13,0,0,0,104.68,64.68Zm-5.9-.47-.49-.09a5.72,5.72,0,0,0-.62,0,3.1,3.1,0,0,0-1.18.21,2.46,2.46,0,0,0-.88.58,2.55,2.55,0,0,0-.54.9,3.41,3.41,0,0,0-.18,1.14A3,3,0,0,0,95.1,68a2.78,2.78,0,0,0,.58.91,2.75,2.75,0,0,0,.91.61,3,3,0,0,0,1.19.22,4.46,4.46,0,0,0,.85-.08,1.65,1.65,0,0,0,.69-.3l-.12-.88-.22.11a3.3,3.3,0,0,1-.51.21,1.78,1.78,0,0,1-.54.11,2.39,2.39,0,0,1-.79-.14,2.08,2.08,0,0,1-.67-.41,2,2,0,0,1-.47-.64,1.84,1.84,0,0,1-.17-.83,1.8,1.8,0,0,1,.17-.8,2.32,2.32,0,0,1,.45-.67A2.23,2.23,0,0,1,97.1,65a1.92,1.92,0,0,1,.78-.17,2.18,2.18,0,0,1,.7.13,3.09,3.09,0,0,1,.74.33l.19-.81-.34-.15Z"/>
    <path class="b" d="M175.18,1H154.51a.76.76,0,0,0-.75.75V14a.75.75,0,0,0,.75.75h3.41V26.14L140.66,1.35A.78.78,0,0,0,140,1H115.76a.76.76,0,0,0-.75.75V14a.75.75,0,0,0,.75.75h3.74V40h-3.74a.76.76,0,0,0-.75.76V53a.76.76,0,0,0,.75.76h21a.76.76,0,0,0,.76-.76V40.73a.76.76,0,0,0-.76-.76H133V25.09l20.21,29a.75.75,0,0,0,.62.32h16.87a.75.75,0,0,0,.75-.75V14.79h3.71a.75.75,0,0,0,.75-.75V1.78A.76.76,0,0,0,175.18,1ZM54.57,34.38l-13.3-4.67a.73.73,0,0,0-.63.06.75.75,0,0,0-.36.52c-1.24,7.14-4.11,10.6-8.76,10.6-5.29,0-7.87-4.45-7.87-13.6s2.48-13.56,7.57-13.56a7.33,7.33,0,0,1,4.89,1.8,10.38,10.38,0,0,1,3.12,5.16.76.76,0,0,0,.72.55H52.73a.76.76,0,0,0,.76-.76V1.78A.76.76,0,0,0,52.73,1H40.43a.76.76,0,0,0-.75.75v2C36,1.25,31.27,0,25.73,0,18.13,0,11.86,2.7,7.09,8A28.1,28.1,0,0,0-.07,27.4,27.3,27.3,0,0,0,7.24,46.61c4.84,5.27,12.37,7.94,22.36,7.94C37,54.55,42.82,52.72,47,49.1a24.3,24.3,0,0,0,8-13.85A.77.77,0,0,0,54.57,34.38ZM112.48,40h-3.23L100,14.79h3a.75.75,0,0,0,.76-.75V1.78a.76.76,0,0,0-.76-.75H66.22a.76.76,0,0,0-.76.75V14a.75.75,0,0,0,.76.75h3L60.2,40H56.82a.76.76,0,0,0-.75.76V53a.76.76,0,0,0,.75.76H78A64.71,64.71,0,0,0,79,43.17c-.06-3.7-9.42-10.34-7.49-12.26,1.31-1.31,6.92,7.44,12.92,7.55S99.78,29,99.91,31.27c.12,1.92-9.16,10.05-9.71,12.06a20.46,20.46,0,0,0,.42,10.41h21.86a.76.76,0,0,0,.76-.76V40.73A.76.76,0,0,0,112.48,40ZM85,34.8c-3,0-7.36-3.29-7.36-7.35a7.36,7.36,0,0,1,14.71,0C92.38,31.51,88.06,34.8,85,34.8Z"/>
  </g>
</svg>
